<?xml version="1.0" encoding="utf-8"?>
<!-- Uploaded to: SVG Repo, www.svgrepo.com, Generator: SVG Repo Mixer Tools -->
<svg fill="#000000" width="800px" height="800px" viewBox="0 0 32 32" version="1.1" xmlns="http://www.w3.org/2000/svg">
<title>ruby</title>
<path d="M7.415 7.344c4.45-4.415 10.193-7.024 12.399-4.799 2.202 2.221-0.131 7.629-4.59 12.042-4.453 4.414-10.126 7.165-12.326 4.945-2.207-2.221 0.056-7.769 4.514-12.184zM1.004 24.859v0zM26.192 1.108c2.718 0.255 4.828 2.525 4.828 5.288 0 0.237-0.016 0.471-0.046 0.7l0.003-0.027 0.019-0.039-1.706 22.354-22.155 1.52c-0.197 0.025-0.426 0.040-0.658 0.040-3.036 0-5.498-2.461-5.498-5.498 0-0.184 0.009-0.367 0.027-0.546l-0.002 0.023 2.056-3.749 4.151 9.695 3.505-11.427-0.037 0.009 0.020-0.037 11.565 3.694-1.744-6.787-1.237-4.874 11.022-0.711-0.769-0.637-7.913-6.451 4.572-2.55z"></path>
</svg>